PathFileType	4	(X/Y/Z)	 New Session 109.trc
DataRate	CameraRate	NumFrames	NumMarkers	Units	OrigDataRate	OrigDataStartFrame	OrigNumFrames
100	100	14	14	m	100	856	1141
Frame#	Time	C7			T8			IJ			PX			AA			AC			AI			TS			SC			GH			LE			ME			US			RS			
		X1	Y1	Z1	X2	Y2	Z2	X3	Y3	Z3	X4	Y4	Z4	X5	Y5	Z5	X6	Y6	Z6	X7	Y7	Z7	X8	Y8	Z8	X9	Y9	Z9	X10	Y10	Z10	X11	Y11	Z11	X12	Y12	Z12	X13	Y13	Z13	X14	Y14	Z14	
856	8.5600	0.031664	0.112658	0.132996	0.030493	-0.094386	0.218552	-0.000045	-0.004274	-0.022807	0.006849	-0.153305	-0.077415	0.224591	0.044474	0.086804	0.152452	0.081449	0.033721	0.116844	0.046095	0.167921	0.122547	-0.071747	0.198323	0.024847	0.005005	-0.020502	0.220189	0.067531	0.047382	0.314971	-0.100751	-0.171497	0.244820	-0.163391	-0.183772	0.287645	-0.097673	-0.452519	0.273854	-0.021120	-0.442098	
857	8.5700	0.031603	0.112650	0.132810	0.030161	-0.094369	0.218445	0.000004	-0.004458	-0.022986	0.007207	-0.153330	-0.077315	0.224477	0.044047	0.087364	0.152832	0.081132	0.033717	0.116474	0.045984	0.168001	0.122140	-0.071815	0.198493	0.024982	0.004885	-0.020706	0.220647	0.066890	0.047786	0.316044	-0.105305	-0.167909	0.245887	-0.168065	-0.179895	0.287396	-0.100829	-0.448354	0.273886	-0.024292	-0.437391	
858	8.5800	0.031492	0.112634	0.132650	0.029852	-0.094372	0.218302	0.000172	-0.004608	-0.023172	0.007654	-0.153339	-0.077128	0.224249	0.043552	0.087954	0.153153	0.080917	0.033825	0.116089	0.045866	0.168104	0.121730	-0.071915	0.198648	0.025172	0.004788	-0.020869	0.221024	0.066270	0.048261	0.317042	-0.109749	-0.164222	0.246796	-0.172635	-0.175863	0.287027	-0.103925	-0.444026	0.273904	-0.027411	-0.432518	
859	8.5900	0.031326	0.112636	0.132520	0.029569	-0.094387	0.218122	0.000458	-0.004700	-0.023372	0.008091	-0.153325	-0.076974	0.223953	0.043011	0.088549	0.153429	0.080793	0.034013	0.115738	0.045722	0.168194	0.121304	-0.072049	0.198772	0.025431	0.004703	-0.020998	0.221337	0.065667	0.048774	0.317980	-0.114173	-0.160400	0.247587	-0.177169	-0.171616	0.286538	-0.106970	-0.439472	0.273854	-0.030480	-0.427402	
860	8.6000	0.031119	0.112668	0.132408	0.029313	-0.094403	0.217910	0.000801	-0.004729	-0.023580	0.008451	-0.153291	-0.076935	0.223670	0.042479	0.089120	0.153677	0.080746	0.034230	0.115408	0.045556	0.168253	0.120856	-0.072211	0.198852	0.025746	0.004631	-0.021118	0.221633	0.065103	0.049294	0.318859	-0.118670	-0.156405	0.248293	-0.181729	-0.167120	0.286009	-0.109977	-0.434620	0.273702	-0.033505	-0.421987	
861	8.6100	0.030899	0.112729	0.132287	0.029080	-0.094414	0.217686	0.001109	-0.004705	-0.023773	0.008714	-0.153251	-0.077041	0.223424	0.042022	0.089658	0.153917	0.080734	0.034415	0.115071	0.045405	0.168282	0.120399	-0.072387	0.198889	0.026074	0.004600	-0.021270	0.221932	0.064581	0.049792	0.319666	-0.123310	-0.152201	0.248921	-0.186351	-0.162383	0.285491	-0.112962	-0.429447	0.273459	-0.036503	-0.416266	
862	8.6200	0.030707	0.112803	0.132125	0.028859	-0.094418	0.217470	0.001361	-0.004650	-0.023946	0.008896	-0.153228	-0.077275	0.223220	0.041678	0.090167	0.154182	0.080690	0.034510	0.114728	0.045300	0.168272	0.119968	-0.072560	0.198896	0.026361	0.004640	-0.021491	0.222243	0.064080	0.050247	0.320393	-0.128129	-0.147765	0.249447	-0.191042	-0.157465	0.284989	-0.115942	-0.423993	0.273135	-0.039512	-0.410275	
863	8.6300	0.030574	0.112876	0.131900	0.028642	-0.094413	0.217277	0.001621	-0.004594	-0.024134	0.009032	-0.153237	-0.077594	0.223071	0.041432	0.090647	0.154504	0.080554	0.034489	0.114405	0.045255	0.168209	0.119594	-0.072708	0.198895	0.026564	0.004735	-0.021763	0.222588	0.063576	0.050659	0.321052	-0.133107	-0.143102	0.249863	-0.195775	-0.152424	0.284482	-0.118943	-0.418352	0.272732	-0.042582	-0.404082	
864	8.6400	0.030513	0.112928	0.131612	0.028425	-0.094396	0.217106	0.001933	-0.004578	-0.024385	0.009155	-0.153280	-0.077951	0.222981	0.041227	0.091111	0.154890	0.080304	0.034373	0.114128	0.045261	0.168093	0.119280	-0.072804	0.198903	0.026669	0.004831	-0.022044	0.222985	0.063054	0.051046	0.321682	-0.138177	-0.138244	0.250192	-0.200505	-0.147290	0.283947	-0.121984	-0.412606	0.272260	-0.045731	-0.397755	
865	8.6500	0.030500	0.112951	0.131291	0.028214	-0.094372	0.216941	0.002213	-0.004644	-0.024715	0.009284	-0.153344	-0.078310	0.222931	0.040993	0.091581	0.155321	0.079964	0.034222	0.113901	0.045292	0.167942	0.119011	-0.072835	0.198929	0.026727	0.004876	-0.022317	0.223409	0.062486	0.051424	0.322315	-0.143235	-0.133231	0.250465	-0.205195	-0.142078	0.283373	-0.125073	-0.406790	0.271740	-0.048932	-0.391336	
866	8.6600	0.030492	0.112952	0.130979	0.028018	-0.094345	0.216766	0.002352	-0.004787	-0.025093	0.009421	-0.153414	-0.078652	0.222882	0.040694	0.092077	0.155765	0.079578	0.034101	0.113712	0.045312	0.167798	0.118767	-0.072816	0.198972	0.026810	0.004852	-0.022587	0.223814	0.061851	0.051814	0.322953	-0.148180	-0.128099	0.250704	-0.209816	-0.136783	0.282742	-0.128213	-0.400901	0.271185	-0.052146	-0.384841	
867	8.6700	0.030455	0.112950	0.130708	0.027841	-0.094323	0.216571	0.002366	-0.004943	-0.025461	0.009551	-0.153475	-0.078972	0.222797	0.040330	0.092613	0.156176	0.079177	0.034049	0.113522	0.045280	0.167687	0.118529	-0.072785	0.199021	0.026928	0.004780	-0.022848	0.224159	0.061134	0.052237	0.323574	-0.152946	-0.122877	0.250919	-0.214350	-0.131384	0.282055	-0.131391	-0.394889	0.270594	-0.055354	-0.378254	
868	8.6800	0.030392	0.112949	0.130467	0.027685	-0.094311	0.216354	0.002350	-0.005034	-0.025788	0.009650	-0.153521	-0.079277	0.222653	0.039926	0.093191	0.156509	0.078782	0.034075	0.113281	0.045173	0.167612	0.118279	-0.072784	0.199061	0.027084	0.004692	-0.023107	0.224443	0.060381	0.052713	0.324158	-0.157522	-0.117574	0.251097	-0.218791	-0.125848	0.281318	-0.134597	-0.388688	0.269959	-0.058563	-0.371537	
869	8.6900	0.030329	0.112951	0.130211	0.027548	-0.094310	0.216123	0.002373	-0.005004	-0.026086	0.009702	-0.153550	-0.079580	0.222451	0.039517	0.093803	0.156769	0.078413	0.034165	0.112961	0.044995	0.167547	0.118005	-0.072846	0.199072	0.027270	0.004630	-0.023382	0.224720	0.059704	0.053254	0.324692	-0.161940	-0.112176	0.251214	-0.223143	-0.120123	0.280505	-0.137845	-0.382270	0.269252	-0.061792	-0.364642	
